<!DOCTYPE svg PUBLIC "-//W3C//DTD SVG 1.1//EN" "http://www.w3.org/Graphics/SVG/1.1/DTD/svg11.dtd">

<svg version="1.1" id="Layer_1" xmlns="http://www.w3.org/2000/svg" xmlns:xlink="http://www.w3.org/1999/xlink" x="0px" y="0px" width="576px" height="432px" viewBox="0 0 576 432" enable-background="new 0 0 576 432" xml:space="preserve">

<path fill="#ffffff" d="M334.22,232.633v26.148c4.752,2.078,10.197,4.469,16.292,7.156c6.11,2.672,12.416,5.432,18.894,8.271
	c6.477,2.844,13.038,5.645,19.657,8.5c6.632,2.828,12.954,5.459,18.906,7.949c5.954,2.432,11.313,4.623,16.079,6.574
	c4.779,1.953,8.642,3.422,11.625,4.455c6.25,2.248,11.327,5.627,15.216,10.197c3.86,4.539,6.901,9.162,9.164,13.955
	c2.658,5.516,4.61,11.328,5.798,17.438v28.383H118.308v-28.383c1.337-6.109,3.344-11.922,6.024-17.438
	c2.228-4.793,5.289-9.416,9.164-13.955c3.875-4.57,8.86-7.949,14.968-10.197c3.133-1.033,7.234-2.545,12.296-4.582
	c5.077-2.01,10.733-4.328,16.991-6.916c6.258-2.602,12.855-5.402,19.785-8.385c6.922-2.984,13.822-5.955,20.66-8.938
	c6.86-2.998,13.337-5.797,19.445-8.486c6.13-2.699,11.482-5.076,16.099-7.154v-25.484c-0.289-1.188-0.785-3.012-1.448-5.486
	c-0.68-2.461-1.378-4.949-2.13-7.494c-0.882-2.957-1.938-6.167-3.124-9.603c-4.32-8.046-7.744-17.154-10.282-27.364
	c-2.539-10.21-3.804-21.058-3.804-32.525c0-15.062,1.604-27.802,4.809-38.211c3.203-10.451,7.566-18.935,13.08-25.482
	c5.508-6.562,11.95-11.328,19.333-14.312c7.374-2.998,15.301-4.469,23.8-4.469c8.342,0,16.206,1.442,23.573,4.355
	c7.383,2.913,13.846,7.594,19.445,14.071c5.6,6.492,9.983,14.99,13.193,25.497c3.209,10.479,4.795,23.363,4.795,38.551
	c0,11.186-1.217,21.778-3.678,31.846c-2.46,10.069-5.854,19.105-10.168,27.18c-1.2,3.691-2.318,7.198-3.35,10.465
	c-0.906,2.855-1.726,5.57-2.463,8.158C334.589,229.551,334.22,231.461,334.22,232.633z"/>
</svg>
